

<svg  class='logo' xmlns="http://www.w3.org/2000/svg" xmlns:xlink="http://www.w3.org/1999/xlink" width="500" zoomAndPan="magnify" viewBox="0 0 375 135.000003" height="180" preserveAspectRatio="xMidYMid meet" version="1.0">
  <defs>
    <clipPath id="c35d4db534">
      <path d="M 1.378906 4 L 372.132812 4 L 372.132812 132 L 1.378906 132 Z M 1.378906 4 " clip-rule="nonzero"/>
    </clipPath>
  </defs>
  <g clip-path="url(#c35d4db534)">
    <path fill="white" d="M 4.296875 5.355469 C 3.535156 5.945312 3.28125 9.15625 3.449219 18.699219 L 3.703125 31.285156 L 30.640625 31.539062 C 50.230469 31.707031 57.832031 32.046875 58.253906 32.722656 C 58.929688 33.734375 56.3125 39.648438 54.789062 40.578125 C 54.367188 40.832031 53.015625 43.109375 51.917969 45.476562 C 50.820312 47.925781 49.300781 50.460938 48.542969 51.050781 C 47.78125 51.640625 47.191406 52.570312 47.191406 52.992188 C 47.191406 53.414062 46.429688 54.851562 45.417969 56.035156 C 44.488281 57.300781 41.785156 61.523438 39.589844 65.496094 C 37.3125 69.464844 34.777344 73.601562 33.933594 74.785156 C 33.089844 75.96875 31.652344 78.585938 30.640625 80.699219 C 29.710938 82.808594 28.277344 85.007812 27.515625 85.683594 C 26.671875 86.273438 26.082031 87.285156 26.082031 87.878906 C 26.082031 88.382812 25.320312 89.566406 24.390625 90.410156 C 23.464844 91.257812 22.703125 92.269531 22.703125 92.609375 C 22.703125 93.285156 16.285156 104.347656 13.414062 108.570312 C 12.570312 109.839844 10.964844 112.710938 9.785156 114.992188 C 8.601562 117.355469 6.996094 119.722656 6.320312 120.3125 C 5.5625 120.988281 4.972656 121.917969 4.972656 122.507812 C 4.972656 123.015625 4.210938 124.199219 3.28125 125.042969 C 2.351562 125.886719 1.59375 127.660156 1.59375 129.011719 L 1.59375 131.378906 L 181.199219 131.378906 L 182.886719 129.519531 C 183.816406 128.421875 185.25 126.394531 186.011719 125.042969 C 191.753906 114.484375 197.664062 104.855469 198.675781 104.179688 C 199.859375 103.335938 201.714844 105.785156 206.023438 113.640625 C 207.878906 117.101562 210.835938 122.425781 212.523438 125.464844 L 215.648438 130.957031 L 249.929688 131.207031 C 276.699219 131.378906 284.46875 131.125 285.144531 130.363281 C 286.492188 128.675781 296.289062 108.910156 296.289062 107.8125 C 296.289062 107.304688 299.328125 100.714844 303.042969 93.285156 C 306.757812 85.851562 309.800781 79.261719 309.800781 78.503906 C 309.800781 76.980469 312.25 73.097656 313.261719 73.097656 C 314.105469 73.097656 323.308594 91.085938 323.308594 92.691406 C 323.308594 93.285156 325.757812 98.6875 328.796875 104.6875 C 331.839844 110.597656 334.289062 115.921875 334.289062 116.34375 C 334.289062 116.847656 335.808594 120.398438 337.75 124.28125 L 341.125 131.378906 L 356.75 131.378906 C 370.425781 131.378906 372.285156 131.207031 372.285156 130.027344 C 372.285156 129.265625 368.484375 120.988281 363.839844 111.527344 C 359.195312 102.066406 355.398438 93.960938 355.398438 93.453125 C 355.398438 91.425781 313.09375 8.058594 312.078125 8.058594 C 311.152344 8.058594 291.984375 45.476562 292.066406 47.25 C 292.066406 47.589844 288.691406 54.851562 284.46875 63.296875 C 280.328125 71.746094 276.867188 79.007812 276.867188 79.515625 C 276.867188 80.023438 273.492188 87.285156 269.269531 95.734375 C 265.128906 104.179688 261.667969 111.445312 261.667969 111.867188 C 261.667969 112.289062 260.316406 115.496094 258.628906 119.046875 C 256.433594 123.691406 255.167969 125.464844 253.984375 125.464844 C 253.140625 125.464844 252.378906 124.957031 252.378906 124.28125 C 252.378906 123.691406 251.875 122.675781 251.199219 122.171875 C 250.523438 121.578125 248.410156 118.453125 246.386719 115.074219 C 244.441406 111.695312 242.164062 108.066406 241.320312 106.882812 C 240.472656 105.699219 238.953125 102.996094 237.941406 100.800781 C 236.929688 98.605469 235.578125 96.324219 234.902344 95.816406 C 234.226562 95.226562 232.960938 93.199219 232.113281 91.257812 C 231.269531 89.3125 230.003906 87.285156 229.328125 86.695312 C 228.652344 86.1875 227.300781 83.90625 226.289062 81.628906 C 225.359375 79.429688 224.09375 77.152344 223.417969 76.644531 C 222.828125 76.136719 221.390625 73.773438 220.292969 71.40625 C 218.519531 67.605469 218.433594 67.097656 219.617188 65.746094 C 220.378906 64.902344 221.730469 62.453125 222.742188 60.257812 C 223.671875 58.0625 224.9375 56.035156 225.359375 55.78125 C 225.867188 55.441406 227.808594 52.316406 229.664062 48.769531 C 231.523438 45.222656 234.308594 40.15625 235.914062 37.621094 C 237.519531 35.085938 239.96875 30.78125 241.320312 28.160156 C 242.753906 25.542969 244.273438 23.175781 244.695312 22.925781 C 245.117188 22.671875 246.722656 19.882812 248.242188 16.757812 C 249.761719 13.546875 251.789062 10.167969 252.632812 9.15625 C 253.5625 8.144531 254.070312 6.707031 253.816406 6.03125 C 253.308594 4.847656 250.777344 4.679688 235.070312 4.679688 L 216.914062 4.679688 L 214.804688 8.820312 C 213.707031 11.097656 212.355469 13.210938 211.847656 13.546875 C 211.425781 13.800781 210.246094 15.914062 209.230469 18.195312 C 208.21875 20.472656 206.867188 22.839844 206.191406 23.347656 C 205.515625 23.9375 204.25 26.050781 203.320312 28.078125 C 200.28125 34.75 197.917969 33.734375 192.429688 23.515625 C 190.570312 20.136719 187.53125 14.476562 185.589844 11.015625 L 182.210938 4.679688 L 163.210938 4.679688 C 147.335938 4.679688 144.296875 4.847656 144.296875 5.863281 C 144.296875 6.539062 144.636719 7.296875 145.058594 7.636719 C 145.480469 7.890625 147.082031 10.761719 148.601562 13.972656 C 150.039062 17.265625 151.8125 20.304688 152.402344 20.8125 C 152.996094 21.320312 154.769531 24.277344 156.203125 27.316406 C 157.722656 30.441406 159.582031 33.734375 160.425781 34.664062 C 161.269531 35.59375 163.464844 39.648438 165.40625 43.703125 C 167.347656 47.757812 169.207031 51.304688 169.714844 51.558594 C 170.136719 51.894531 171.402344 53.921875 172.585938 56.203125 C 173.683594 58.484375 175.625 61.695312 176.804688 63.46875 C 179.253906 67.015625 179.507812 69.886719 177.652344 71.40625 C 176.890625 72 175.539062 74.195312 174.695312 76.136719 C 173.765625 78.164062 172.585938 80.023438 172.078125 80.359375 C 171.570312 80.613281 169.882812 83.65625 168.277344 87.117188 C 166.671875 90.496094 164.984375 93.535156 164.476562 93.789062 C 164.054688 94.128906 162.535156 96.492188 161.101562 99.113281 C 157.046875 106.796875 154.09375 111.695312 152.65625 113.386719 C 151.898438 114.230469 150.800781 116.257812 150.207031 117.949219 C 148.941406 121.578125 146.324219 125.210938 145.5625 124.535156 C 145.308594 124.199219 144.972656 108.996094 144.886719 90.75 L 144.71875 57.46875 L 129.773438 57.21875 L 114.742188 57.046875 L 114.742188 79.769531 C 114.742188 99.363281 114.574219 102.742188 113.390625 103.839844 C 112.292969 105.023438 108.324219 105.191406 83.5 105.191406 C 67.035156 105.191406 54.707031 104.855469 54.453125 104.433594 C 54.113281 104.011719 55.382812 101.390625 57.238281 98.6875 C 59.011719 95.988281 61.207031 92.269531 62.222656 90.328125 C 63.148438 88.46875 64.585938 86.441406 65.261719 85.851562 C 66.019531 85.175781 66.613281 84.246094 66.613281 83.65625 C 66.613281 83.148438 67.371094 81.964844 68.300781 81.121094 C 69.230469 80.277344 69.988281 79.179688 69.988281 78.753906 C 69.988281 78.25 70.917969 76.644531 72.101562 75.125 C 73.28125 73.601562 74.210938 72 74.210938 71.574219 C 74.210938 71.152344 74.804688 70.308594 75.5625 69.632812 C 76.238281 69.042969 77.589844 67.097656 78.519531 65.324219 C 79.445312 63.46875 81.640625 59.917969 83.332031 57.300781 C 85.019531 54.765625 86.878906 51.894531 87.382812 51.050781 C 87.890625 50.207031 88.820312 48.769531 89.496094 48.011719 C 90.171875 47.164062 91.4375 45.136719 92.28125 43.535156 C 93.125 41.929688 95.996094 37.367188 98.613281 33.566406 C 101.234375 29.679688 104.273438 24.699219 105.285156 22.585938 C 106.382812 20.390625 107.902344 17.941406 108.664062 17.097656 C 109.339844 16.335938 110.351562 14.898438 110.859375 14.054688 C 111.367188 13.210938 112.464844 11.519531 113.308594 10.339844 C 114.574219 8.648438 114.660156 7.804688 113.898438 6.453125 C 112.96875 4.679688 112.714844 4.679688 59.179688 4.679688 C 29.628906 4.679688 4.886719 5.015625 4.296875 5.355469 Z M 4.296875 5.355469 " fill-opacity="1" fill-rule="nonzero"/>
  </g>
  <path fill="purple" d="M 116.683594 19.546875 C 116.433594 20.222656 117.023438 21.65625 118.035156 22.753906 C 118.964844 23.769531 119.808594 24.953125 119.808594 25.289062 C 119.808594 25.625 120.738281 27.148438 121.921875 28.667969 C 123.101562 30.1875 124.03125 31.707031 124.03125 32.046875 C 124.03125 32.300781 124.960938 34.074219 126.140625 35.933594 C 128.507812 39.734375 130.449219 40.238281 131.546875 37.367188 C 131.96875 36.355469 133.320312 34.074219 134.503906 32.300781 C 138.046875 27.148438 141.089844 20.644531 140.582031 19.375 C 139.90625 17.519531 117.445312 17.6875 116.683594 19.546875 Z M 116.683594 19.546875 " fill-opacity="1" fill-rule="nonzero"/></svg>
